<?xml version="1.0" encoding="utf-8"?>
<!-- Generator: Adobe Illustrator 24.0.0, SVG Export Plug-In . SVG Version: 6.00 Build 0)  -->
<svg version="1.2" baseProfile="tiny" id="Layer_1" xmlns="http://www.w3.org/2000/svg" xmlns:xlink="http://www.w3.org/1999/xlink"
	 x="0px" y="0px" width="200.492px" height="33px" viewBox="0 0 200.492 33" xml:space="preserve">
<g id="XMLID_21_">
	<path id="XMLID_30_" fill="#015A9D" d="M41.823,13.163h6.279v12.558h11.511c0.865,0,1.604-0.307,2.219-0.921
		c0.614-0.614,0.921-1.353,0.921-2.219V10.024c0-0.865-0.307-1.604-0.921-2.219c-0.614-0.614-1.354-0.921-2.219-0.921H43.916
		l-2.093-6.279h17.79c2.595,0,4.814,0.921,6.656,2.763s2.763,4.06,2.763,6.656v12.558c0,2.595-0.921,4.814-2.763,6.656
		C64.427,31.079,62.209,32,59.613,32h-17.79V13.163z"/>
	<path id="XMLID_28_" fill="#015A9D" d="M78.425,19.442V32l-6.279-2.093V0.606h6.279v12.558h14.651V0.606h6.279V32h-6.279V19.442
		H78.425z"/>
	<path id="XMLID_26_" fill="#935493" d="M131.77,10.024v2.093h-6.279v-2.093c0-0.865-0.307-1.604-0.921-2.219
		c-0.614-0.614-1.353-0.921-2.219-0.921h-10.465c-0.865,0-1.605,0.307-2.219,0.921c-0.614,0.614-0.921,1.354-0.921,2.219v12.558
		c0,0.865,0.307,1.605,0.921,2.219c0.614,0.614,1.353,0.921,2.219,0.921h10.465c0.865,0,1.604-0.307,2.219-0.921
		c0.614-0.614,0.921-1.353,0.921-2.219v-2.093h6.279v2.093c0,2.595-0.921,4.814-2.763,6.656c-1.842,1.842-4.06,2.763-6.656,2.763
		h-10.465c-2.595,0-4.814-0.921-6.656-2.763c-1.842-1.842-2.763-4.06-2.763-6.656V10.024c0-2.595,0.921-4.814,2.763-6.656
		c1.842-1.842,4.06-2.763,6.656-2.763h10.465c2.595,0,4.814,0.921,6.656,2.763C130.85,5.21,131.77,7.429,131.77,10.024z"/>
	<path id="XMLID_24_" fill="#935493" d="M134.885,32v-6.279h17.79c0.865,0,1.604-0.307,2.219-0.921
		c0.614-0.614,0.921-1.353,0.921-2.219c0-0.865-0.307-1.604-0.921-2.219c-0.614-0.614-1.353-0.921-2.219-0.921h-8.372
		c-2.595,0-4.814-0.921-6.656-2.763s-2.763-4.06-2.763-6.656s0.921-4.814,2.763-6.656s4.06-2.763,6.656-2.763h17.79L160,6.884
		h-15.697c-0.865,0-1.605,0.307-2.219,0.921c-0.614,0.614-0.921,1.354-0.921,2.219c0,0.865,0.307,1.605,0.921,2.219
		c0.614,0.614,1.353,0.921,2.219,0.921h8.372c2.595,0,4.814,0.921,6.656,2.763c1.842,1.842,2.763,4.06,2.763,6.656
		s-0.921,4.814-2.763,6.656c-1.842,1.842-4.06,2.763-6.656,2.763H134.885z"/>
	<path id="XMLID_22_" fill="#935493" d="M165.208,32v-6.279h17.79c0.865,0,1.604-0.307,2.219-0.921
		c0.614-0.614,0.921-1.353,0.921-2.219c0-0.865-0.307-1.604-0.921-2.219c-0.614-0.614-1.353-0.921-2.219-0.921h-8.372
		c-2.595,0-4.814-0.921-6.656-2.763c-1.842-1.842-2.763-4.06-2.763-6.656s0.921-4.814,2.763-6.656
		c1.842-1.842,4.06-2.763,6.656-2.763h17.79l-2.093,6.279h-15.697c-0.865,0-1.605,0.307-2.219,0.921
		c-0.614,0.614-0.921,1.354-0.921,2.219c0,0.865,0.307,1.605,0.921,2.219c0.614,0.614,1.353,0.921,2.219,0.921h8.372
		c2.595,0,4.814,0.921,6.656,2.763c1.842,1.842,2.763,4.06,2.763,6.656s-0.921,4.814-2.763,6.656
		c-1.842,1.842-4.06,2.763-6.656,2.763H165.208z"/>
</g>
<linearGradient id="XMLID_2_" gradientUnits="userSpaceOnUse" x1="12.2754" y1="21.9552" x2="32.2577" y2="21.9552">
	<stop  offset="0" style="stop-color:#025694"/>
	<stop  offset="0.1717" style="stop-color:#065694"/>
	<stop  offset="0.3376" style="stop-color:#115694"/>
	<stop  offset="0.5012" style="stop-color:#255694"/>
	<stop  offset="0.6634" style="stop-color:#405594"/>
	<stop  offset="0.8246" style="stop-color:#635593"/>
	<stop  offset="0.9831" style="stop-color:#8E5493"/>
	<stop  offset="1" style="stop-color:#935493"/>
</linearGradient>
<path id="XMLID_20_" fill="url(#XMLID_2_)" d="M20.786,26.622c-0.015,0.497,0.069,0.987,0.023,1.49
	c-0.067,0.746-0.326,1.407-0.744,2.008c-1.427,2.051-4.301,2.454-6.223,0.863c-0.932-0.771-1.456-1.771-1.554-2.994
	c-0.178-2.22,1.336-4.075,3.356-4.507c0.486-0.104,0.984-0.123,1.484-0.071c1.033,0.109,2.017-0.094,2.952-0.522
	c1.702-0.778,2.83-2.079,3.404-3.853c0.257-0.794,0.334-1.611,0.239-2.449c-0.079-0.695,0.026-1.379,0.312-2.023
	c0.485-1.092,1.278-1.877,2.392-2.32c1.673-0.665,3.573-0.159,4.78,1.186c1.22,1.359,1.397,3.515,0.42,5.088
	c-0.851,1.372-2.556,2.178-4.168,1.978c-1.009-0.125-1.983,0.077-2.914,0.481c-1.363,0.592-2.387,1.554-3.075,2.866
	C21.018,24.71,20.775,25.636,20.786,26.622z"/>
<linearGradient id="XMLID_3_" gradientUnits="userSpaceOnUse" x1="0.7556" y1="10.4475" x2="20.7596" y2="10.4475">
	<stop  offset="0" style="stop-color:#025694"/>
	<stop  offset="0.1717" style="stop-color:#065694"/>
	<stop  offset="0.3376" style="stop-color:#115694"/>
	<stop  offset="0.5012" style="stop-color:#255694"/>
	<stop  offset="0.6634" style="stop-color:#405594"/>
	<stop  offset="0.8246" style="stop-color:#635593"/>
	<stop  offset="0.9831" style="stop-color:#8E5493"/>
	<stop  offset="1" style="stop-color:#935493"/>
</linearGradient>
<path id="XMLID_19_" fill="url(#XMLID_3_)" d="M5.053,20.44c-2.077,0.059-4.001-1.588-4.267-3.783
	c-0.211-1.742,0.701-3.453,2.251-4.268c0.837-0.44,1.711-0.552,2.635-0.468c0.955,0.087,1.878-0.079,2.751-0.463
	c2.036-0.896,3.268-2.455,3.733-4.621c0.11-0.512,0.12-1.032,0.06-1.557c-0.312-2.727,1.864-5.001,4.596-4.815
	c2.159,0.147,3.883,2.004,3.945,4.169c0.056,1.979-1.296,3.816-3.301,4.277c-0.535,0.123-1.079,0.133-1.626,0.079
	c-0.982-0.098-1.919,0.094-2.813,0.493c-1.313,0.585-2.326,1.509-3.007,2.775c-0.567,1.055-0.847,2.181-0.704,3.388
	c0.274,2.31-1.328,4.414-3.63,4.761C5.472,20.438,5.261,20.43,5.053,20.44z"/>
<linearGradient id="XMLID_4_" gradientUnits="userSpaceOnUse" x1="0.7879" y1="21.9568" x2="20.7439" y2="21.9568">
	<stop  offset="0" style="stop-color:#025694"/>
	<stop  offset="0.1717" style="stop-color:#065694"/>
	<stop  offset="0.3376" style="stop-color:#115694"/>
	<stop  offset="0.5012" style="stop-color:#255694"/>
	<stop  offset="0.6634" style="stop-color:#405594"/>
	<stop  offset="0.8246" style="stop-color:#635593"/>
	<stop  offset="0.9831" style="stop-color:#8E5493"/>
	<stop  offset="1" style="stop-color:#935493"/>
</linearGradient>
<path id="XMLID_18_" fill="url(#XMLID_4_)" d="M12.256,17.305c0.028-0.504-0.064-1.003-0.02-1.513
	c0.065-0.759,0.352-1.415,0.769-2.023c1.386-2.019,4.286-2.408,6.248-0.779c1.399,1.161,1.889,3.254,1.145,4.934
	c-0.608,1.373-1.667,2.198-3.117,2.506c-0.473,0.101-0.968,0.081-1.46,0.042c-1.45-0.114-2.765,0.295-3.941,1.137
	c-1.074,0.769-1.84,1.782-2.285,3.029c-0.296,0.83-0.385,1.682-0.303,2.56c0.108,1.16-0.182,2.222-0.912,3.134
	c-0.874,1.092-2.038,1.612-3.43,1.605c-2.032-0.011-3.868-1.652-4.124-3.669c-0.291-2.29,1.079-4.261,3.343-4.782
	c0.438-0.101,0.893-0.109,1.343-0.066c1.707,0.164,3.203-0.346,4.513-1.424c1.119-0.92,1.814-2.106,2.125-3.52
	C12.235,18.091,12.27,17.7,12.256,17.305z"/>
<path id="XMLID_17_" fill="#935493" d="M27.904,0.554c2.385,0,4.266,1.881,4.266,4.266c0,2.384-1.885,4.272-4.266,4.272
	c-2.382,0-4.277-1.905-4.273-4.296C23.635,2.441,25.535,0.554,27.904,0.554z"/>
</svg>
